<?xml version="1.0" encoding="UTF-8"?>
<svg id="Layer_1" data-name="Layer 1" xmlns="http://www.w3.org/2000/svg" viewBox="0 0 800 528.44">
  <defs>
    <style>
      .cls-1 {
        fill: #bfdf7a;
      }

      .cls-2 {
        fill: #38131a;
      }

      .cls-3 {
        fill: #3b8e48;
      }

      .cls-4 {
        fill: #f44458;
      }
    </style>
  </defs>
  <path class="cls-3" d="M535.78,0h-271.56c-35.65,0-70.26,6.99-102.86,20.78-31.47,13.31-59.72,32.36-83.97,56.61-24.25,24.25-43.3,52.5-56.61,83.97C6.99,193.96,0,228.57,0,264.22s6.99,70.26,20.78,102.86c13.31,31.47,32.36,59.72,56.61,83.97,24.25,24.25,52.5,43.3,83.97,56.61,32.6,13.79,67.21,20.78,102.86,20.78h271.56c35.65,0,70.26-6.99,102.86-20.78,31.47-13.31,59.72-32.36,83.97-56.61,24.25-24.25,43.3-52.5,56.61-83.97,13.79-32.6,20.78-67.21,20.78-102.86s-6.99-70.26-20.78-102.86c-13.31-31.47-32.36-59.72-56.61-83.97-24.25-24.25-52.5-43.3-83.97-56.61C606.04,6.99,571.43,0,535.78,0h0Z"/>
  <circle class="cls-1" cx="535.78" cy="264.22" r="218.09"/>
  <circle class="cls-4" cx="535.78" cy="264.22" r="188.14"/>
  <g>
    <circle class="cls-2" cx="584.41" cy="143.84" r="12.7"/>
    <circle class="cls-2" cx="649.7" cy="191.57" r="12.7"/>
    <circle class="cls-2" cx="609.81" cy="233.5" r="12.7"/>
    <circle class="cls-2" cx="670.49" cy="274.28" r="12.7"/>
    <circle class="cls-2" cx="597.11" cy="302.15" r="12.7"/>
    <circle class="cls-2" cx="645.09" cy="331.72" r="12.7"/>
    <circle class="cls-2" cx="591.52" cy="386.14" r="12.7"/>
    <circle class="cls-2" cx="485.6" cy="386.14" r="12.7"/>
    <circle class="cls-2" cx="420.31" cy="338.42" r="12.7"/>
    <circle class="cls-2" cx="460.2" cy="296.48" r="12.7"/>
    <circle class="cls-2" cx="399.52" cy="255.71" r="12.7"/>
    <circle class="cls-2" cx="472.9" cy="227.83" r="12.7"/>
    <circle class="cls-2" cx="424.92" cy="198.26" r="12.7"/>
    <circle class="cls-2" cx="478.49" cy="143.84" r="12.7"/>
  </g>
</svg>